PathFileType	4	(X/Y/Z)	C:\Users\WrightLab\Desktop\Jo\P1_boxCal23.trc
DataRate	CameraRate	NumFrames	NumMarkers	Units	OrigDataRate	OrigDataStartFrame	OrigNumFrames
100.00	100.00	       15	19	mm	100.00	526	       701
Frame#	Time	Headset_Front			Headset_Back			Headset_Left			Headset_Right			Left_Shoulder			Right_Shoulder			Sternum			C7			Left Elbow			Right Elbow			Left Wrist			Right Wrist			Left ASIS			Right ASIS			S2			Left Knee			Right Knee			Left Ankle			Right Ankle			
		X1	Y1	Z1	X2	Y2	Z2	X3	Y3	Z3	X4	Y4	Z4	X5	Y5	Z5	X6	Y6	Z6	X7	Y7	Z7	X8	Y8	Z8	X9	Y9	Z9	X10	Y10	Z10	X11	Y11	Z11	X12	Y12	Z12	X13	Y13	Z13	X14	Y14	Z14	X15	Y15	Z15	X16	Y16	Z16	X17	Y17	Z17	X18	Y18	Z18	X19	Y19	Z19	

526	5.250	-601.74530	1419.59570	-436.70251	-758.95282	1499.05151	-298.45987	-826.76746	1435.73096	-437.64304	-671.86243	1378.94690	-564.64362	-929.34778	1262.86218	-368.48254	-555.44543	1262.21155	-303.47952	-703.88055	1148.98828	-450.31985	-773.63037	1277.96948	-225.94885	-1032.59473	959.44446	-311.88776	-486.43509	1005.44098	-192.91525	-1107.76343	784.12274	-430.40738	-385.98984	781.64001	-204.51549	-815.77643	870.54578	-451.11893	-617.44427	869.43152	-420.39093	-760.10583	905.44934	-121.28116	-910.72211	432.30133	-279.49637	-551.22614	480.71439	-404.12015	-885.60327	75.95653	-185.02066				
527	5.260	-600.31647	1417.66113	-444.78891	-756.71008	1497.81311	-305.96384	-825.34021	1434.36072	-446.78543	-670.07587	1377.01550	-572.46893	-928.35297	1261.24109	-375.82324	-554.57019	1260.91943	-312.75073	-702.84778	1147.80518	-458.44949	-772.83850	1277.06006	-234.12985	-1033.53589	958.27460	-321.42856	-484.85977	1005.14252	-199.77866	-1107.56897	784.50684	-444.63583	-383.63654	782.17511	-209.74644	-814.77612	869.44690	-459.06781	-616.91455	867.41785	-427.78384	-758.19611	902.69073	-131.75891	-910.38403	430.89761	-284.69904	-552.11340	480.10690	-414.57635	-885.09229	76.13477	-185.90292				
528	5.270	-599.21588	1415.61780	-452.59708	-756.46106	1496.36157	-315.14096	-823.95728	1432.65161	-455.36426	-668.20990	1375.17822	-580.72491	-927.08856	1260.16833	-384.25229	-553.17096	1259.57068	-320.67618	-702.02203	1146.14966	-466.80756	-772.27301	1275.79016	-242.52740	-1035.03625	957.08527	-331.41855	-483.55743	1004.19702	-207.32390	-1106.24939	784.41046	-458.12100	-380.80716	782.47675	-214.91095	-813.79498	867.56146	-466.85898	-615.48840	866.07526	-437.45035	-755.01117	903.60876	-138.13245	-908.72748	431.03015	-290.05240	-552.45850	478.58072	-424.38934	-884.86328	76.14677	-186.05190				
529	5.280	-596.91980	1413.85388	-460.97482	-755.70441	1495.66528	-324.88181	-822.17181	1431.28918	-464.97455	-666.29041	1373.15564	-588.55267	-925.62286	1258.58923	-392.32306	-552.11499	1258.21313	-329.62100	-701.01666	1143.94275	-475.04422	-770.09259	1273.87354	-250.02208	-1035.37000	956.13593	-342.32199	-481.31689	1004.05841	-215.53070	-1105.23413	784.72217	-471.54388	-378.21295	782.16284	-220.56126	-812.70074	866.02167	-474.89474	-613.88770	864.02081	-446.25388	-752.81476	901.98169	-145.82449	-906.93115	429.64169	-294.35568	-553.22412	476.59262	-433.67300	-884.35052	76.24325	-186.65552				
530	5.290	-595.29712	1412.40833	-469.76205	-753.83557	1494.20251	-333.35269	-820.44635	1429.34229	-472.77597	-664.27673	1371.12476	-597.31683	-924.28925	1256.74951	-399.90378	-550.18402	1256.80200	-338.84598	-699.61438	1142.04443	-482.44308	-768.53912	1272.16870	-259.21048	-1035.30237	954.87378	-353.07080	-478.84781	1003.22223	-223.79431	-1103.64856	784.29742	-484.62033	-374.89511	782.39905	-225.77016	-811.49524	863.88879	-482.07037	-611.64264	863.01416	-455.80167	-751.60559	898.86700	-156.04515	-905.86786	428.96393	-300.11307	-553.97723	474.95206	-442.59906	-884.00220	76.67937	-187.47224				
531	5.300	-593.02563	1410.73645	-477.34949	-752.63629	1492.90210	-341.59293	-818.37506	1427.65759	-482.17877	-662.10181	1368.92566	-605.33282	-922.70007	1255.39355	-407.98230	-548.45001	1254.54932	-347.99121				-766.88190	1270.82458	-267.04388	-1034.82983	952.74194	-363.47031	-477.09393	1002.27618	-231.49367	-1101.94226	783.25055	-496.84497	-371.94836	782.09375	-231.65945	-809.87970	861.96045	-490.16162	-611.20306	859.99695	-464.08099	-748.15186	898.42560	-163.38290	-904.22668	427.94202	-304.68353	-553.33099	473.02536	-451.55759	-883.84125	76.87341	-187.71445				
532	5.310	-591.45477	1407.71326	-485.76059	-750.36127	1490.72034	-350.65186	-816.19861	1425.90918	-490.10010	-659.55829	1367.07642	-613.47998	-921.20142	1253.34436	-414.88736	-547.12537	1252.62073	-356.26138	-696.99829	1138.90112	-500.79883	-764.55072	1269.13025	-275.62280	-1034.20740	951.18555	-374.86234	-474.66287	1001.16400	-238.45174	-1099.85291	782.81366	-509.64713	-368.77542	781.60614	-237.89676	-808.72906	860.87219	-499.26538	-609.56042	858.93317	-473.85684	-745.47809	896.37000	-173.08002	-903.37646	426.17822	-308.96420	-552.76233	471.22400	-461.94174	-883.28888	77.20882	-188.56471				
533	5.320	-589.04736	1406.01416	-494.17267	-747.51306	1488.23962	-358.65170	-813.98206	1423.74475	-499.08792	-657.08826	1364.75586	-622.07928	-919.12512	1251.01392	-423.02225	-545.00635	1250.58838	-365.75940	-695.49316	1137.05823	-508.98703	-761.91541	1266.43628	-283.65094	-1032.77429	948.89331	-385.42957	-472.59555	1000.01532	-246.79216	-1097.33838	780.82721	-520.51111	-366.13525	780.59741	-243.52396	-807.49933	859.08997	-508.05792	-607.76660	856.68866	-483.61038	-742.81891	893.61652	-183.92038	-901.79712	425.79950	-315.62994	-551.69427	469.28784	-471.72650	-882.93091	77.47273	-189.07506				
534	5.330	-586.42908	1403.63416	-501.43353	-745.25830	1486.04541	-367.18765	-811.35541	1422.02246	-507.72995	-654.40454	1362.53833	-630.47351	-917.15552	1249.53479	-431.48117	-542.53101	1248.78088	-374.49805	-693.78223	1135.41321	-518.19244	-759.09009	1264.60583	-291.38388	-1031.77209	947.22833	-396.47971	-469.65320	998.33191	-256.28647	-1094.60547	779.69843	-532.96478	-363.82623	779.59485	-248.67957	-806.08295	857.57654	-517.12769	-606.23987	855.54797	-494.17062	-739.76593	891.50323	-191.39087	-900.74054	423.52890	-319.81265	-550.52063	467.25589	-481.33243	-882.78906	78.10937	-189.62247				
535	5.340	-583.43250	1400.94910	-509.83887	-742.13318	1483.51965	-375.50119	-808.66998	1419.86157	-516.20251	-651.63757	1360.39124	-638.74353	-915.11951	1247.47473	-439.21588	-540.08600	1246.33569	-384.24637	-692.24683	1133.12317	-526.52649	-756.25385	1261.47583	-300.31409	-1028.25476	943.96545	-406.57129	-467.74075	996.14166	-263.92969	-1091.47327	777.81213	-543.78137	-360.68094	778.49274	-255.95525	-804.73236	855.55334	-525.24237	-604.35883	853.25452	-504.07941	-736.42426	889.62927	-200.11835	-899.50659	421.83301	-325.57343	-548.27222	465.51276	-491.51517	-882.52832	78.69418	-190.04744				
536	5.350	-581.13098	1398.23718	-519.07135	-739.97870	1482.19177	-383.94150	-805.67535	1418.04407	-525.41559	-648.75909	1358.05164	-647.52631	-912.50751	1245.52185	-447.09354	-537.27289	1243.77136	-392.38065	-689.96204	1132.14197	-536.83264	-753.20044	1258.44202	-308.76331	-1026.01428	941.76917	-417.88016	-465.02713	994.56152	-271.87915	-1087.82727	776.13196	-555.26404	-357.76749	777.39423	-261.86200	-803.52460	853.94293	-534.96814	-603.47186	850.45398	-513.19482	-732.81219	885.78491	-212.81374	-898.21094	420.41275	-332.23212	-546.64075	463.29712	-501.66937	-882.12787	79.63876	-191.22977				
537	5.360	-577.74469	1395.94324	-527.04675	-737.36389	1479.99841	-393.12964	-802.64240	1415.97705	-533.64209	-645.59344	1355.96045	-655.53339	-909.93988	1243.55200	-454.95135	-534.72644	1240.93481	-401.69113	-688.16406	1129.30884	-544.75427	-750.24268	1256.14148	-317.20337	-1022.19171	939.12286	-428.09457	-463.22830	991.70026	-280.11282	-1084.07971	773.52301	-565.27911	-354.40903	775.39130	-268.87708	-801.39270	851.92102	-544.54565	-601.52222	848.47705	-523.52808	-730.08832	884.48169	-219.53766	-896.77661	419.96713	-338.60519	-545.34119	461.05524	-512.80634	-881.64087	80.20471	-191.13281				
538	5.370	-574.22504	1394.23889	-535.22626	-734.05536	1477.59534	-401.07443	-799.38495	1413.88586	-542.04962	-642.17950	1354.31274	-664.57288	-907.00964	1241.48596	-463.31650	-531.86713	1238.57043	-410.68195	-685.41248	1128.05444	-554.68622	-746.95770	1253.51428	-326.52847	-1018.88763	936.52826	-438.26685	-460.85626	989.50311	-288.87860	-1079.73828	771.72284	-576.40570	-351.67184	773.87439	-274.97360	-800.00183	849.82324	-554.10760	-599.38861	846.79926	-534.70551	-726.40790	881.28259	-229.66464	-894.97949	418.94385	-344.22498	-543.41608	458.91699	-523.70831	-881.20392	80.97686	-191.24251				
539	5.380	-571.49609	1391.13733	-544.09711	-730.19568	1475.91406	-409.92172	-795.93866	1412.03857	-550.33936	-638.70929	1352.58276	-673.03333	-903.65521	1239.35718	-471.65521	-528.40125	1235.69482	-420.26865	-682.86969	1125.90417	-564.41187	-743.79535	1251.04663	-336.16989	-1015.83099	933.62067	-448.63266	-457.86322	986.30267	-298.18088	-1075.47754	769.05054	-585.87982	-349.62805	771.51495	-281.99149	-798.44855	848.17621	-564.32928	-597.06580	844.39117	-545.30774	-723.44312	877.97174	-240.43239	-893.15240	417.83740	-350.82513	-541.59082	456.55508	-535.26373	-880.88177	82.35636	-192.27441				
540	5.390	-568.03467	1388.57617	-552.64117	-726.87054	1473.53381	-418.12576	-792.19250	1410.04797	-558.48163	-635.03809	1350.81543	-681.41913	-900.39215	1237.42542	-480.47525	-524.70386	1232.93457	-428.60251	-680.13568	1123.55347	-573.59528	-740.69574	1248.64941	-345.28482	-1011.43268	930.81183	-458.99670	-455.41956	983.53979	-306.86053	-1071.27942	766.48041	-595.73376	-346.79333	768.48279	-289.17664	-796.21436	846.29260	-574.56885	-595.32611	841.65204	-556.01111	-720.26489	875.26917	-252.79466	-890.92291	416.95944	-356.81296	-539.77240	455.60446	-548.18475	-879.04614	80.83542	-199.54257				
